<?xml version="1.0" encoding="UTF-8" standalone="no"?>
<!-- Created with Inkscape (http://www.inkscape.org/) -->

<svg
   width="210mm"
   height="297mm"
   viewBox="0 0 210 297"
   version="1.1"
   id="svg1"
   inkscape:version="1.3.2 (091e20e, 2023-11-25, custom)"
   sodipodi:docname="drawing.svg"
   xmlns:inkscape="http://www.inkscape.org/namespaces/inkscape"
   xmlns:sodipodi="http://sodipodi.sourceforge.net/DTD/sodipodi-0.dtd"
   xmlns="http://www.w3.org/2000/svg"
   xmlns:svg="http://www.w3.org/2000/svg">
  <sodipodi:namedview
     id="namedview1"
     pagecolor="#ffffff"
     bordercolor="#999999"
     borderopacity="1"
     inkscape:showpageshadow="2"
     inkscape:pageopacity="0"
     inkscape:pagecheckerboard="0"
     inkscape:deskcolor="#d1d1d1"
     inkscape:document-units="mm"
     inkscape:zoom="2.0485264"
     inkscape:cx="368.80168"
     inkscape:cy="241.39303"
     inkscape:window-width="1920"
     inkscape:window-height="1009"
     inkscape:window-x="1072"
     inkscape:window-y="502"
     inkscape:window-maximized="1"
     inkscape:current-layer="layer1" />
  <defs
     id="defs1">
    <rect
       x="214.78854"
       y="192.33337"
       width="658.03398"
       height="397.3588"
       id="rect1" />
  </defs>
  <g
     inkscape:label="Layer 1"
     inkscape:groupmode="layer"
     id="layer1">
    <path
       style="font-size:96px;font-family:'Sans Serif Collection';-inkscape-font-specification:'Sans Serif Collection';letter-spacing:-8px;white-space:pre;fill:#0000ff"
       d="m 573.77344,279.44894 q -2.48438,0.65625 -5.4375,1.07813 -2.90625,0.42187 -5.20313,0.42187 -8.01562,0 -12.1875,-4.3125 -4.17187,-4.3125 -4.17187,-13.82812 v -27.84375 h -5.95313 v -7.40625 h 5.95313 v -15.04688 h 8.8125 v 15.04688 h 18.1875 v 7.40625 h -18.1875 v 23.85937 q 0,4.125 0.1875,6.46875 0.1875,2.29688 1.3125,4.3125 1.03125,1.875 2.8125,2.76563 1.82812,0.84375 5.53125,0.84375 2.15625,0 4.5,-0.60938 2.34375,-0.65625 3.375,-1.07812 h 0.46875 z"
       transform="scale(0.26458333)"
       id="path18" />
    <path
       style="font-size:96px;font-family:'Sans Serif Collection';-inkscape-font-specification:'Sans Serif Collection';letter-spacing:-8px;white-space:pre;fill:#0000ff"
       d="m 541.97656,264.82394 q 0,7.17188 -5.95312,11.76563 -5.90625,4.59375 -16.17188,4.59375 -5.8125,0 -10.6875,-1.35938 -4.82812,-1.40625 -8.10937,-3.04687 v -9.89063 h 0.46875 q 4.17187,3.14063 9.28125,5.01563 5.10937,1.82812 9.79687,1.82812 5.8125,0 9.09375,-1.875 3.28125,-1.875 3.28125,-5.90625 0,-3.09375 -1.78125,-4.6875 -1.78125,-1.59375 -6.84375,-2.71875 -1.875,-0.42187 -4.92187,-0.98437 -3,-0.5625 -5.48438,-1.21875 -6.89062,-1.82813 -9.79687,-5.34375 -2.85938,-3.5625 -2.85938,-8.71875 0,-3.23438 1.3125,-6.09375 1.35938,-2.85938 4.07813,-5.10938 2.625,-2.20312 6.65625,-3.46875 4.07812,-1.3125 9.09375,-1.3125 4.6875,0 9.46875,1.17188 4.82812,1.125 8.01562,2.76562 v 9.42188 h -0.46875 q -3.375,-2.48438 -8.20312,-4.17188 -4.82813,-1.73437 -9.46875,-1.73437 -4.82813,0 -8.15625,1.875 -3.32813,1.82812 -3.32813,5.48437 0,3.23438 2.01563,4.875 1.96875,1.64063 6.375,2.67188 2.4375,0.5625 5.4375,1.125 3.04687,0.5625 5.0625,1.03125 6.14062,1.40625 9.46875,4.82812 3.32812,3.46875 3.32812,9.1875 z"
       transform="scale(0.26458333)"
       id="path17" />
    <path
       style="font-size:96px;font-family:'Sans Serif Collection';-inkscape-font-specification:'Sans Serif Collection';letter-spacing:-8px;white-space:pre;fill:#0000ff"
       d="m 499.21094,254.65207 h -38.57813 q 0,4.82812 1.45313,8.4375 1.45312,3.5625 3.98437,5.85937 2.4375,2.25 5.76563,3.375 3.375,1.125 7.40625,1.125 5.34375,0 10.73437,-2.10937 5.4375,-2.15625 7.73438,-4.21875 h 0.46875 v 9.60937 q -4.45313,1.875 -9.09375,3.14063 -4.64063,1.26562 -9.75,1.26562 -13.03125,0 -20.34375,-7.03125 -7.3125,-7.07812 -7.3125,-20.0625 0,-12.84375 6.98437,-20.39062 7.03125,-7.54688 18.46875,-7.54688 10.59375,0 16.3125,6.1875 5.76563,6.1875 5.76563,17.57813 z m -8.57813,-6.75 q -0.0469,-6.9375 -3.51562,-10.73438 -3.42188,-3.79687 -10.45313,-3.79687 -7.07812,0 -11.29687,4.17187 -4.17188,4.17188 -4.73438,10.35938 z"
       transform="scale(0.26458333)"
       id="path16" />
    <path
       style="font-size:96px;font-family:'Sans Serif Collection';-inkscape-font-specification:'Sans Serif Collection';letter-spacing:-8px;white-space:pre;fill:#0000ff"
       d="m 445.52344,279.91769 h -11.48438 l -33.09375,-62.4375 v 62.4375 h -8.67187 v -69.79687 h 14.39062 l 30.1875,57 v -57 h 8.67188 z"
       transform="scale(0.26458333)"
       id="path15" />
    <path
       style="font-size:96px;font-family:'Sans Serif Collection';-inkscape-font-specification:'Sans Serif Collection';letter-spacing:-8px;white-space:pre;fill:#0000ff;stroke:none"
       d="m 382.13281,279.91769 h -8.8125 v -72.9375 h 8.8125 z"
       transform="scale(0.26458333)"
       id="path14" />
    <path
       style="font-size:96px;font-family:'Sans Serif Collection';-inkscape-font-specification:'Sans Serif Collection';letter-spacing:-8px;white-space:pre;fill:#0000ff;stroke:none"
       d="m 363.78906,279.91769 h -8.8125 v -72.9375 h 8.8125 z"
       transform="scale(0.26458333)"
       id="path13" />
    <path
       style="font-size:96px;font-family:'Sans Serif Collection';-inkscape-font-specification:'Sans Serif Collection';letter-spacing:-8px;white-space:pre;fill:#0000ff;stroke:none"
       d="m 349.52344,254.65207 h -38.57813 q 0,4.82812 1.45313,8.4375 1.45312,3.5625 3.98437,5.85937 2.4375,2.25 5.76563,3.375 3.375,1.125 7.40625,1.125 5.34375,0 10.73437,-2.10937 5.4375,-2.15625 7.73438,-4.21875 h 0.46875 v 9.60937 q -4.45313,1.875 -9.09375,3.14063 -4.64063,1.26562 -9.75,1.26562 -13.03125,0 -20.34375,-7.03125 -7.3125,-7.07812 -7.3125,-20.0625 0,-12.84375 6.98437,-20.39062 7.03125,-7.54688 18.46875,-7.54688 10.59375,0 16.3125,6.1875 5.76563,6.1875 5.76563,17.57813 z m -8.57813,-6.75 q -0.0469,-6.9375 -3.51562,-10.73438 -3.42188,-3.79687 -10.45313,-3.79687 -7.07812,0 -11.29687,4.17187 -4.17188,4.17188 -4.73438,10.35938 z"
       transform="scale(0.26458333)"
       id="path12" />
    <path
       style="font-size:96px;font-family:'Sans Serif Collection';-inkscape-font-specification:'Sans Serif Collection';letter-spacing:-8px;white-space:pre;fill:#0000ff;stroke:none"
       d="m 305.39844,210.12082 -18.14063,69.79687 h -10.45312 l -14.67188,-57.9375 -14.34375,57.9375 h -10.21875 l -18.46875,-69.79687 h 9.51563 l 14.67187,58.03125 14.4375,-58.03125 h 9.42188 l 14.57812,58.59375 14.57813,-58.59375 z"
       transform="scale(0.26458333)"
       id="text1" />
    <path
       id="rect7"
       style="color:#000000;fill:none;stroke:#008080;stroke-width:0.5;stroke-dasharray:none"
       d="m 154.70722,50.062643 -52.42192,2.79746 v 1.286105 h 0.22576 v -1.05698 l 51.96905,-2.773724 v 30.820013 l -51.96905,-5.424892 v -1.274478 h -0.22576 v 1.492462 l 52.42192,5.470426 z" />
  </g>
</svg>
